<?xml version="1.0" encoding="UTF-8"?>
<svg id="Layer_2" data-name="Layer 2" xmlns="http://www.w3.org/2000/svg" viewBox="0 0 153.9 76.4">
  <defs>
    <style>
      .cls-1 {
        fill: #EFE5D5;
      }
    </style>
  </defs>
  <g id="svg1">
    <g>
      <g>
        <path class="cls-1" d="M76.65,26.51c.65,0,1.31-.12,1.96-.37,.65-.24,1.33-.49,2.03-.73s1.42-.37,2.17-.37c.37,0,.74,.04,1.1,.12,.36,.08,.71,.21,1.03,.37,.44-.96,.67-1.83,.67-2.63,0-.58-.14-.99-.42-1.21-.28-.22-.69-.33-1.22-.33-.7,0-1.38,.14-2.05,.42-.26,.11-.54,.21-.83,.31-.06-.05-.12-.1-.19-.16-.36-.32-.68-.69-.96-1.14-.28-.44-.42-.92-.42-1.43,0-.63,.2-1.09,.6-1.38,.4-.29,.82-.45,1.26-.47,.12,.3,.35,.61,.7,.93,.35,.31,.8,.47,1.36,.47,.61,.02,1.07-.13,1.4-.46,.33-.33,.5-.71,.53-1.16,0-.49-.18-.89-.54-1.19s-.82-.53-1.36-.68c-.55-.15-1.09-.25-1.63-.3-.54-.05-.98-.07-1.33-.07-.3,0-.69,.03-1.17,.09-.48,.06-.96,.2-1.45,.42-.49,.22-.9,.55-1.22,.98-.33,.43-.49,1.02-.49,1.77,0,.63,.16,1.26,.47,1.89s.85,1.21,1.61,1.73c.34,.23,.74,.45,1.19,.66-.07,.02-.13,.06-.2,.08-.47,.13-.95,.19-1.44,.19-.37,0-.74-.05-1.09-.14s-.7-.21-1.05-.35c-.21,.44-.37,.89-.49,1.35-.12,.45-.18,.87-.18,1.24,0,.56,.14,.96,.42,1.19,.28,.23,.69,.35,1.22,.35Z"/>
        <path class="cls-1" d="M150.08,19.16c1.12,0,2.04-.33,2.75-1,.71-.67,1.07-1.52,1.07-2.57,0-.75-.26-1.35-.77-1.8s-1.2-.68-2.07-.68c-1.1,0-2.01,.33-2.73,1-.72,.66-1.09,1.55-1.09,2.64,0,.7,.25,1.28,.75,1.73,.5,.45,1.2,.68,2.08,.68Z"/>
        <path class="cls-1" d="M150.99,22.34c-.96,0-1.97,.21-3.03,.63-1.06,.42-2.04,.96-2.92,1.61l1.87,2.6c-.02,.07-.03,.12-.05,.2-.16,.63-.34,1.35-.54,2.15-.2,.81-.39,1.66-.56,2.57s-.33,1.83-.47,2.77c-.1,.67-.18,1.3-.26,1.92h-4.6s-.01,0-.02,0c0,0-.01,0-.02,0h-2.56c-.89,0-1.55-.26-2-.77-.44-.51-.66-1.24-.66-2.17,0-.47,.05-.97,.14-1.52,.03-.18,.07-.37,.1-.55,.11-.49,.2-1,.32-1.48,.3-1.25,.55-2.37,.75-3.36,.2-.99,.3-1.79,.3-2.4,0-.65-.17-1.19-.53-1.61-.35-.42-.96-.63-1.82-.63-.63,0-1.36,.13-2.19,.39-.83,.26-1.67,.62-2.54,1.09,.19,.3,.34,.72,.46,1.24,.12,.53,.17,1.1,.17,1.73s-.06,1.27-.17,1.92c-.12,.65-.26,1.32-.42,2-.16,.68-.33,1.35-.49,2.03-.16,.68-.3,1.35-.42,2.03s-.17,1.34-.17,2v.07h-2.59c-.89,0-1.55-.26-2-.77-.44-.51-.66-1.26-.66-2.24,0-.84,.12-1.73,.35-2.66,.23-.93,.47-1.86,.7-2.78,.23-.92,.35-1.78,.35-2.57s-.17-1.4-.51-1.82c-.34-.42-.93-.63-1.77-.63-.68,0-1.43,.13-2.26,.39-.83,.26-1.67,.62-2.54,1.09,.21,.33,.37,.76,.47,1.29,.1,.54,.16,1.12,.16,1.75,0,.75-.07,1.48-.21,2.21s-.3,1.44-.47,2.15c-.17,.71-.33,1.45-.47,2.2-.14,.76-.21,1.53-.21,2.33v.07h-2.63c-.89,0-1.55-.26-2-.77-.44-.51-.66-1.26-.66-2.24,0-.84,.12-1.67,.35-2.49,.23-.82,.47-1.63,.7-2.45,.23-.82,.35-1.62,.35-2.42s-.17-1.4-.52-1.82c-.35-.42-.95-.63-1.79-.63-.68,0-1.43,.13-2.26,.39-.83,.26-1.66,.62-2.5,1.08,.19,.33,.33,.76,.44,1.3,.1,.54,.16,1.12,.16,1.75,0,.77-.06,1.48-.19,2.14s-.29,1.29-.47,1.91c-.19,.62-.34,1.27-.47,1.96-.13,.69-.19,1.43-.19,2.22v.07h-4.2s-.01,0-.02,0c0,0-.01,0-.02,0h-3.04c-.89,0-1.55-.26-2-.77-.44-.51-.67-1.23-.67-2.14,0-.37,.04-.83,.11-1.38,.07-.54,.13-1.08,.17-1.62,.09-.67,.19-1.33,.3-1.99,.24-1.46,.51-2.85,.79-4.18,.28-1.33,.54-2.56,.79-3.69,.24-1.13,.44-2.13,.6-2.99,.15-.86,.23-1.56,.23-2.1,0-.75-.19-1.3-.58-1.66-.39-.36-1.03-.54-1.94-.54-1.03,0-2.04,.21-3.03,.63-.99,.42-1.92,.94-2.78,1.57l1.84,2.48c-.14,.81-.3,1.71-.47,2.71-.26,1.48-.53,3.05-.82,4.71-.29,1.66-.56,3.26-.8,4.81s-.45,2.92-.61,4.11c-.11,.83-.19,1.5-.24,2.03h-16.21c-.56,0-1.01-.09-1.36-.26-.35-.18-.61-.45-.77-.82-.16-.37-.25-.86-.25-1.47,0-.84,.1-1.58,.3-2.22,.2-.64,.4-1.28,.59-1.92s.3-1.32,.3-2.05c0-.82-.17-1.43-.52-1.85-.35-.42-.93-.63-1.75-.63-.77,0-1.54,.15-2.31,.44-.77,.29-1.53,.64-2.28,1.03,.19,.33,.33,.76,.44,1.29,.1,.54,.16,1.13,.16,1.79,0,.77-.06,1.41-.18,1.93-.12,.51-.23,1.04-.35,1.59-.12,.55-.17,1.28-.17,2.19,0,2.1,.46,3.61,1.36,4.53,.91,.92,2.31,1.38,4.2,1.38h18.18c-1.13,7.65-2.83,19.29-3.05,20.62-.32,1.88-.56,3.44-.74,4.7-.18,1.26-.29,2.31-.36,3.14-.07,.83-.11,1.53-.11,2.11,0,1.42,.29,2.46,.88,3.12s1.52,.98,2.8,.98c1.38,0,2.65-.45,3.82-1.37-.35-.47-.61-1-.76-1.61s-.22-1.39-.22-2.35c0-.42,.05-1.02,.14-1.79,.09-.77,.22-1.66,.39-2.67,.03-.2,.07-.41,.1-.62l2.5-1.45,2.33,6c.58,1.49,1.14,2.67,1.69,3.52,.55,.85,1.17,1.45,1.86,1.79,.69,.34,1.51,.5,2.44,.5,.47,0,.98-.07,1.55-.22s1.11-.36,1.61-.62c.5-.26,.9-.54,1.18-.84-.58-.42-1.2-1.09-1.84-2-.64-.91-1.28-2-1.94-3.27-.65-1.27-1.28-2.7-1.89-4.26-.48-1.24-.95-2.53-1.4-3.91,1.05-.68,1.97-1.32,2.78-1.94,1.48-1.14,2.58-2.23,3.29-3.27,.71-1.04,1.07-2.05,1.07-3.03s-.27-1.65-.79-2.15c-.53-.5-1.28-.76-2.29-.76-1.33,0-2.7,.43-4.1,1.3,.09,.26,.16,.51,.21,.76,.05,.24,.07,.49,.07,.75,0,.63-.13,1.26-.37,1.89-.24,.63-.62,1.28-1.13,1.96-.51,.68-1.17,1.39-1.95,2.12-.78,.74-1.72,1.49-2.81,2.29l-1.4,1.04c.14-.74,.27-1.47,.4-2.19,.2-1.12,.39-2.16,.55-3.13,.11-.61,1.31-9.06,2.23-15.47,.45,.2,.98,.31,1.62,.31h3.64s.01,0,.02,0c0,0,.01,0,.02,0h8.16l1.19-1.82h.3c.15,.38,.34,.71,.59,.98,.52,.56,1.31,.84,2.36,.84h7.25l1.19-1.82h.3c.15,.38,.34,.71,.59,.98,.52,.56,1.31,.84,2.36,.84h7.35l1.18-1.82h.28c.15,.38,.34,.71,.59,.98,.53,.56,1.31,.84,2.36,.84h3.22s.01,0,.02,0c0,0,.01,0,.02,0h8.79l2.41-3.75c.09-.98,.23-2.02,.42-3.12,.19-1.1,.4-2.19,.65-3.27,.24-1.09,.48-2.1,.7-3.05,.22-.95,.41-1.77,.56-2.48,.15-.71,.23-1.24,.23-1.59,0-.72-.19-1.26-.58-1.61-.39-.35-.99-.53-1.8-.53Z"/>
        <path class="cls-1" d="M23.7,50.05c-.86,0-1.81,.19-2.84,.56s-2.08,.92-3.15,1.65l1.4,3.22c-.49,2.78-.89,5.12-1.19,7.02s-.55,3.47-.74,4.7c-.07,.43-.13,.84-.17,1.23h-.28c-.68-3.15-1.3-5.81-1.86-7.98s-1.11-3.93-1.63-5.3-1.09-2.42-1.68-3.14-1.26-1.23-2.01-1.51c-.75-.28-1.61-.42-2.59-.42-.91,0-1.89,.19-2.94,.56-1.05,.37-2.15,.92-3.29,1.65l1.61,3.22c-.47,2.78-.85,5.11-1.16,7-.3,1.89-.55,3.47-.74,4.71-.19,1.25-.32,2.26-.37,3.05-.06,.78-.08,1.46-.08,2.04,0,1.42,.29,2.46,.88,3.12s1.52,.98,2.8,.98c1.35,0,2.63-.45,3.82-1.37-.35-.47-.61-1-.76-1.61-.15-.61-.22-1.39-.22-2.35,0-.42,.05-1.02,.14-1.79,.09-.77,.22-1.66,.38-2.67,.16-1.02,.35-2.09,.56-3.22,.21-1.13,.41-2.26,.61-3.38,.2-1.12,.39-2.16,.55-3.13,.07-.43,.14-.84,.2-1.21h.33c.61,2.92,1.18,5.46,1.72,7.63,.54,2.17,1.05,4.03,1.55,5.55s1.02,2.79,1.54,3.78c.53,.99,1.1,1.76,1.72,2.31,.62,.55,1.31,.92,2.07,1.13,.62,.17,1.28,.27,2.02,.29,.16,.01,.34,.02,.53,.02,.7,0,1.35-.1,1.97-.33s1.24-.57,1.84-1.04c-.35-.49-.61-1.04-.76-1.65-.15-.61-.22-1.38-.22-2.31,0-.42,.05-1.02,.14-1.8,.09-.78,.22-1.68,.39-2.7s.35-2.09,.56-3.22c.21-1.13,.41-2.26,.61-3.38,.2-1.12,.39-2.16,.55-3.12,.16-.96,.29-1.79,.39-2.49,.09-.7,.14-1.2,.14-1.51,0-1.89-.77-2.84-2.31-2.84Z"/>
        <path class="cls-1" d="M52.12,50.08c-.89,0-1.69,.18-2.4,.53s-1.34,.84-1.89,1.47c-.55,.63-1,1.35-1.38,2.17s-.65,1.72-.84,2.68c-.19,.97-.28,1.96-.28,2.99,0,.82,.05,1.6,.15,2.35,.11,.75,.26,1.41,.44,2-.56,1.49-1.24,2.8-2.03,3.92s-1.63,1.98-2.51,2.59c-.88,.61-1.72,.91-2.53,.91-.86,0-1.48-.26-1.84-.78s-.54-1.31-.54-2.33c0-.4,.06-1,.19-1.83s.3-1.8,.51-2.89,.42-2.22,.64-3.37,.44-2.26,.65-3.31c.21-1.05,.37-1.95,.5-2.71,.13-.76,.2-1.27,.2-1.53,0-1.89-.78-2.84-2.35-2.84-.89,0-1.82,.18-2.79,.51-.97,.34-2.1,.9-3.41,1.69l1.61,3.22c-.47,2.57-.85,4.69-1.16,6.37-.3,1.68-.54,3.05-.69,4.08-.15,1.04-.26,1.88-.32,2.52-.06,.64-.08,1.2-.08,1.69,0,.93,.1,1.79,.31,2.54,.21,.76,.54,1.4,.99,1.94,.45,.54,1.03,.96,1.72,1.25,.69,.29,1.52,.43,2.47,.43,1.4,0,2.72-.3,3.97-.91,1.25-.61,2.39-1.44,3.43-2.5,1.04-1.06,1.91-2.29,2.61-3.66l.32-.03c-.14,.47-.25,.97-.32,1.49s-.11,1.06-.11,1.62c0,.82,.13,1.54,.39,2.16,.26,.62,.64,1.09,1.17,1.41,.53,.33,1.19,.49,1.98,.49,.68,0,1.32-.1,1.93-.33,.61-.22,1.2-.57,1.79-1.04-.61-.91-.91-2.37-.91-4.38,0-1.26,.11-2.75,.32-4.49,.21-1.74,.48-3.55,.81-5.41,.33-1.87,.68-3.68,1.06-5.43,.38-1.75,.76-3.27,1.11-4.55-.42-.21-.89-.37-1.39-.5-.5-.13-1-.2-1.52-.2Z"/>
        <path class="cls-1" d="M76.52,50.61c-1.27-.35-2.77-.53-4.49-.53s-3.49,.19-5.06,.55c-1.58,.36-2.95,.89-4.13,1.59s-2.1,1.58-2.77,2.61-.99,2.23-.99,3.58c0,1.19,.23,2.21,.71,3.03,.48,.83,1.11,1.54,1.89,2.14s1.65,1.1,2.59,1.51c.95,.41,1.89,.77,2.82,1.09,.93,.31,1.8,.63,2.59,.95,.79,.31,1.42,.68,1.89,1.09,.47,.41,.7,.9,.7,1.48,0,1.07-.53,1.87-1.56,2.37s-2.3,.75-3.79,.75c-1.73,0-3.22-.4-4.48-1.2-1.26-.81-2.31-1.88-3.15-3.21-.51,.42-.92,.93-1.21,1.53s-.43,1.18-.43,1.76c0,.96,.34,1.79,1.03,2.49,.69,.7,1.75,1.25,3.19,1.63,1.44,.38,3.23,.57,5.38,.57,1.54,0,3-.16,4.39-.5,1.39-.34,2.64-.84,3.73-1.51s1.96-1.48,2.59-2.45,.95-2.09,.95-3.35c0-1.14-.23-2.12-.7-2.94-.47-.82-1.1-1.51-1.89-2.07-.79-.56-1.66-1.03-2.59-1.41s-1.88-.74-2.82-1.04-1.81-.61-2.59-.91c-.78-.3-1.41-.65-1.89-1.06-.48-.41-.71-.9-.71-1.46,0-.93,.54-1.72,1.61-2.36,1.07-.64,2.46-1.06,4.17-1.25,.49,1.26,1.17,2.21,2.04,2.84,.88,.63,1.87,.95,2.96,.95s2.08-.3,2.87-.92c.79-.62,1.19-1.51,1.19-2.65,0-.84-.35-1.58-1.05-2.21-.7-.63-1.69-1.12-2.96-1.47Z"/>
      </g>
      <path class="cls-1" d="M139.69,8.26c-.12-.23-.22-.57-.3-1-.09-.44-.16-.89-.2-1.38-.05-.48-.07-.88-.07-1.19,0-.64,.11-1.07,.32-1.29,.21-.22,.47-.33,.78-.33,.15,0,.34,.02,.57,.06,.22,.04,.48,.17,.77,.41-.1,.17-.16,.44-.2,.78-.04,.35-.05,.72-.04,1.12,0,.4,.02,.76,.04,1.09l2.03-1.02-.26-.35c-.52-.79-.65-1.62-.39-2.5s.84-1.58,1.73-2.12c.73-.44,1.44-.61,2.1-.51,.67,.11,1.22,.5,1.67,1.18,.46,.75,.6,1.54,.42,2.36-.18,.82-.68,1.52-1.49,2.1-.27,.19-.68,.45-1.22,.77-.54,.32-1.11,.64-1.7,.97-.59,.33-1.1,.6-1.52,.81-.97,.45-1.66,.66-2.09,.65-.43,0-.74-.22-.93-.62Zm6.5-3.92c.12-.08,.21-.15,.28-.2,.07-.06,.15-.13,.25-.23,.04-.19,.05-.43,.04-.7,0-.27-.11-.55-.3-.84-.17-.31-.39-.52-.65-.64-.26-.12-.52-.11-.77,.03-.33,.19-.51,.47-.55,.84-.04,.37,.08,.77,.35,1.22,.27,.45,.52,.67,.74,.67s.43-.05,.62-.14Z"/>
    </g>
  </g>
</svg>
